<svg width="658.240625px" height="121.39999999999999px" xmlns="http://www.w3.org/2000/svg" viewBox="-79.12031250000001 14.300000000000004 658.240625 121.39999999999999" style="background: rgba(0, 0, 0, 0);" preserveAspectRatio="xMidYMid"><defs><linearGradient id="editing-rainbow-gradient" x1="0" x2="1" y1="0.5" y2="0.5" gradientUnits="objectBoundingBox"><stop offset="0.00" stop-color="#f00"></stop><stop offset="0.17" stop-color="#f90"></stop><stop offset="0.34" stop-color="#ff4"></stop><stop offset="0.51" stop-color="#9f0"></stop><stop offset="0.68" stop-color="#09f"></stop><stop offset="0.85" stop-color="#00f"></stop><stop offset="1.00" stop-color="#90f"></stop></linearGradient><filter id="editing-rainbow" x="-100%" y="-100%" width="300%" height="300%"><feMorphology operator="dilate" radius="1,2" in="SourceGraphic" result="dilate"></feMorphology><feColorMatrix in="dilate" result="color" type="matrix" values="0.7 0 0 0 0  0 0.7 0 0 0  0 0 0.7 0 0  0 0 0 1 0"></feColorMatrix><feOffset dy="2" result="offset"></feOffset><feGaussianBlur stdDeviation="3"></feGaussianBlur><feOffset dy="3"></feOffset><feColorMatrix result="blur" type="matrix" values="0.7 0 0 0 0  0 0.7 0 0 0  0 0 0.7 0 0  0 0 0 1 0"></feColorMatrix><feMerge><feMergeNode in="blur"></feMergeNode><feMergeNode in="offset"></feMergeNode><feMergeNode in="SourceGraphic"></feMergeNode></feMerge></filter></defs><g filter="url(#editing-rainbow)"><g transform="translate(15.664984822273254, 104.76000022888184)"><path d="M26.05-29.57L26.05-29.57L26.05-29.57Q27.01-31.49 27.01-33.28L27.01-33.28L27.01-33.28Q27.01-35.07 26.82-36.06L26.82-36.06L26.82-36.06Q26.62-37.06 26.18-37.82L26.18-37.82L26.18-37.82Q25.22-39.49 23.30-39.49L23.30-39.49L23.30-39.49Q20.93-39.49 19.01-37.76L19.01-37.76L19.01-37.76Q16.96-35.97 16.96-33.15L16.96-33.15L16.96-33.15Q16.96-31.36 18.21-29.98L18.21-29.98L18.21-29.98Q19.46-28.61 21.38-27.33L21.38-27.33L21.38-27.33Q23.30-26.05 25.47-24.77L25.47-24.77L25.47-24.77Q27.65-23.49 29.57-21.95L29.57-21.95L29.57-21.95Q33.98-18.43 33.98-13.70L33.98-13.70L33.98-13.70Q33.98-10.50 32.29-7.78L32.29-7.78L32.29-7.78Q30.59-5.06 27.78-3.07L27.78-3.07L27.78-3.07Q21.63 1.28 13.50 1.28L13.50 1.28L13.50 1.28Q6.91 1.28 3.52-0.86L3.52-0.86L3.52-0.86Q0.13-3.01 0.13-6.27L0.13-6.27L0.13-6.27Q0.13-12.10 4.67-13.57L4.67-13.57L4.67-13.57Q5.95-14.02 7.90-14.02L7.90-14.02L7.90-14.02Q9.86-14.02 12.10-13.18L12.10-13.18L12.10-13.18Q11.07-10.56 11.07-8.19L11.07-8.19L11.07-8.19Q11.07-3.07 14.72-3.07L14.72-3.07L14.72-3.07Q17.09-3.07 19.04-4.80L19.04-4.80L19.04-4.80Q20.99-6.53 20.99-8.48L20.99-8.48L20.99-8.48Q20.99-10.43 19.74-11.84L19.74-11.84L19.74-11.84Q18.50-13.25 16.64-14.37L16.64-14.37L16.64-14.37Q14.78-15.49 12.64-16.58L12.64-16.58L12.64-16.58Q10.50-17.66 8.64-19.20L8.64-19.20L8.64-19.20Q4.29-22.72 4.29-28.35L4.29-28.35L4.29-28.35Q4.29-32 6.08-34.85L6.08-34.85L6.08-34.85Q7.87-37.70 10.75-39.62L10.75-39.62L10.75-39.62Q16.51-43.52 23.58-43.52L23.58-43.52L23.58-43.52Q30.66-43.52 34.08-41.41L34.08-41.41L34.08-41.41Q37.50-39.30 37.50-35.71L37.50-35.71L37.50-35.71Q37.50-32.58 35.07-30.59L35.07-30.59L35.07-30.59Q32.96-28.93 30.40-28.93L30.40-28.93L30.40-28.93Q27.84-28.93 26.05-29.57ZM68.67-4.38L68.67-4.38L68.67-4.38Q65.98-1.66 62.30-0.19L62.30-0.19L62.30-0.19Q58.62 1.28 54.98 1.28L54.98 1.28L54.98 1.28Q51.33 1.28 50.05 0.64L50.05 0.64L48.06 11.52L35.07 12.80L43.90-32.64L54.34-33.73L53.50-29.31L53.50-29.31Q56.19-33.86 61.76-33.86L61.76-33.86L61.76-33.86Q68.03-33.86 71.36-29.82L71.36-29.82L71.36-29.82Q74.30-26.18 74.30-20.61L74.30-20.61L74.30-20.61Q74.30-15.04 72.83-11.07L72.83-11.07L72.83-11.07Q71.36-7.10 68.67-4.38ZM54.21-22.34L50.82-3.58L50.82-3.58Q52.16-2.43 53.82-2.43L53.82-2.43L53.82-2.43Q55.49-2.43 56.45-3.07L56.45-3.07L56.45-3.07Q57.41-3.71 58.11-4.99L58.11-4.99L58.11-4.99Q60.03-8.45 61.57-18.94L61.57-18.94L61.57-18.94Q62.02-22.02 62.02-25.02L62.02-25.02L62.02-25.02Q62.02-28.03 61.34-28.99L61.34-28.99L61.34-28.99Q60.67-29.95 59.39-29.95L59.39-29.95L59.39-29.95Q55.49-29.95 54.21-22.34L54.21-22.34ZM93.50-3.52L93.50-3.52L93.50-3.52Q91.52 1.28 85.18 1.28L85.18 1.28L85.18 1.28Q81.92 1.28 79.87-0.96L79.87-0.96L79.87-0.96Q78.14-2.94 78.14-4.93L78.14-4.93L78.14-4.93Q78.14-10.11 80.51-20.22L80.51-20.22L82.88-32.64L95.87-33.92L91.97-13.70L91.97-13.70Q90.88-8.96 90.88-7.30L90.88-7.30L90.88-7.30Q90.88-3.65 93.50-3.52ZM84.03-41.54L84.03-41.54L84.03-41.54Q84.03-44.03 86.11-45.38L86.11-45.38L86.11-45.38Q88.19-46.72 91.20-46.72L91.20-46.72L91.20-46.72Q94.21-46.72 96.03-45.38L96.03-45.38L96.03-45.38Q97.86-44.03 97.86-41.54L97.86-41.54L97.86-41.54Q97.86-39.04 95.84-37.76L95.84-37.76L95.84-37.76Q93.82-36.48 90.82-36.48L90.82-36.48L90.82-36.48Q87.81-36.48 85.92-37.76L85.92-37.76L85.92-37.76Q84.03-39.04 84.03-41.54ZM126.02 1.28L126.02 1.28L126.02 1.28Q118.27 1.28 118.27-4.74L118.27-4.74L118.27-4.74Q118.34-6.40 118.85-9.22L118.85-9.22L120-15.10L120-15.10Q121.73-23.42 121.73-25.28L121.73-25.28L121.73-25.28Q121.73-28.99 119.55-28.99L119.55-28.99L119.55-28.99Q115.90-28.99 113.98-19.46L113.98-19.46L110.21 0L97.34 1.28L104-32.70L114.50-33.92L113.47-27.65L113.47-27.65Q116.48-33.92 125.70-33.92L125.70-33.92L125.70-33.92Q130.18-33.92 132.06-32.03L132.06-32.03L132.06-32.03Q133.95-30.14 133.95-25.92L133.95-25.92L133.95-25.92Q133.95-21.95 131.90-12.67L131.90-12.67L131.90-12.67Q130.94-8.51 130.94-6.94L130.94-6.94L130.94-6.94Q130.94-5.38 131.81-4.48L131.81-4.48L131.81-4.48Q132.67-3.58 133.95-3.46L133.95-3.46L133.95-3.46Q133.31-1.28 131.10 0L131.10 0L131.10 0Q128.90 1.28 126.02 1.28ZM166.21 1.28L166.21 1.28L166.21 1.28Q152.13 1.28 152.13-11.97L152.13-11.97L152.13-11.97Q152.13-21.38 157.31-27.46L157.31-27.46L157.31-27.46Q162.82-33.92 172.35-33.92L172.35-33.92L172.35-33.92Q179.26-33.92 182.78-30.72L182.78-30.72L182.78-30.72Q186.30-27.52 186.30-20.80L186.30-20.80L186.30-20.80Q186.30-10.56 180.80-4.61L180.80-4.61L180.80-4.61Q175.42 1.28 166.21 1.28ZM167.87-26.56L167.87-26.56L167.87-26.56Q167.10-24.83 166.50-22.24L166.50-22.24L166.50-22.24Q165.89-19.65 165.12-15.55L165.12-15.55L165.12-15.55Q164.35-11.46 164.35-6.40L164.35-6.40L164.35-6.40Q164.35-4.74 164.90-3.65L164.90-3.65L164.90-3.65Q165.44-2.56 166.91-2.56L166.91-2.56L166.91-2.56Q168.38-2.56 169.31-3.26L169.31-3.26L169.31-3.26Q170.24-3.97 170.94-5.63L170.94-5.63L170.94-5.63Q172.22-8.58 173.25-14.05L173.25-14.05L173.25-14.05Q174.27-19.52 174.37-21.89L174.37-21.89L174.37-21.89Q174.46-24.26 174.46-26.02L174.46-26.02L174.46-26.02Q174.46-27.78 173.95-28.93L173.95-28.93L173.95-28.93Q173.44-30.08 172.00-30.08L172.00-30.08L172.00-30.08Q170.56-30.08 169.60-29.18L169.60-29.18L169.60-29.18Q168.64-28.29 167.87-26.56ZM215.04-37.12L215.04-37.12L215.04-37.12Q215.94-38.66 215.94-40.32L215.94-40.32L215.94-40.32Q215.94-43.26 214.14-43.26L214.14-43.26L214.14-43.26Q211.39-43.26 210.24-37.63L210.24-37.63L209.28-32.64L215.10-32.64L214.72-29.76L208.70-29.76L202.94 0L190.02 1.28L196.16-29.76L191.62-29.76L192.19-32.64L196.67-32.64L198.02-37.70L198.02-37.70Q199.17-42.37 204.10-44.54L204.10-44.54L204.10-44.54Q207.68-46.08 213.70-46.08L213.70-46.08L213.70-46.08Q219.71-46.08 222.40-44.54L222.40-44.54L222.40-44.54Q225.09-43.01 225.09-40.96L225.09-40.96L225.09-40.96Q225.09-38.91 223.49-37.63L223.49-37.63L223.49-37.63Q221.89-36.35 220.10-36.35L220.10-36.35L220.10-36.35Q216.58-36.35 215.04-37.12ZM256.83-33.92L256.83-33.92L256.83-33.92Q251.65-33.92 247.87-35.65L247.87-35.65L245.82-25.28L258.18-25.28L258.18-25.28Q258.18-21.89 256.48-19.74L256.48-19.74L256.48-19.74Q254.78-17.60 251.71-17.60L251.71-17.60L251.71-17.60Q248.38-17.60 245.31-18.82L245.31-18.82L245.31-18.82Q244.67-19.07 244.61-19.14L244.61-19.14L240.96 0L227.01 0L235.14-42.24L263.68-42.24L263.68-42.24Q263.68-38.34 261.86-36.13L261.86-36.13L261.86-36.13Q260.03-33.92 256.83-33.92ZM275.58 1.28L275.58 1.28L275.58 1.28Q261.50 1.28 261.50-11.97L261.50-11.97L261.50-11.97Q261.50-21.38 266.69-27.46L266.69-27.46L266.69-27.46Q272.19-33.92 281.73-33.92L281.73-33.92L281.73-33.92Q288.64-33.92 292.16-30.72L292.16-30.72L292.16-30.72Q295.68-27.52 295.68-20.80L295.68-20.80L295.68-20.80Q295.68-10.56 290.18-4.61L290.18-4.61L290.18-4.61Q284.80 1.28 275.58 1.28ZM277.25-26.56L277.25-26.56L277.25-26.56Q276.48-24.83 275.87-22.24L275.87-22.24L275.87-22.24Q275.26-19.65 274.50-15.55L274.50-15.55L274.50-15.55Q273.73-11.46 273.73-6.40L273.73-6.40L273.73-6.40Q273.73-4.74 274.27-3.65L274.27-3.65L274.27-3.65Q274.82-2.56 276.29-2.56L276.29-2.56L276.29-2.56Q277.76-2.56 278.69-3.26L278.69-3.26L278.69-3.26Q279.62-3.97 280.32-5.63L280.32-5.63L280.32-5.63Q281.60-8.58 282.62-14.05L282.62-14.05L282.62-14.05Q283.65-19.52 283.74-21.89L283.74-21.89L283.74-21.89Q283.84-24.26 283.84-26.02L283.84-26.02L283.84-26.02Q283.84-27.78 283.33-28.93L283.33-28.93L283.33-28.93Q282.82-30.08 281.38-30.08L281.38-30.08L281.38-30.08Q279.94-30.08 278.98-29.18L278.98-29.18L278.98-29.18Q278.02-28.29 277.25-26.56ZM319.49-17.98L319.49-17.98L319.49-17.98Q321.79-22.08 321.79-26.24L321.79-26.24L321.79-26.24Q321.79-28.99 319.81-28.99L319.81-28.99L319.81-28.99Q318.27-28.99 316.67-26.37L316.67-26.37L316.67-26.37Q315.01-23.74 314.50-20.35L314.50-20.35L311.17 0L297.92 1.28L304.45-32.64L315.01-33.92L313.86-27.46L313.86-27.46Q316.99-33.92 324.03-33.92L324.03-33.92L324.03-33.92Q327.74-33.92 329.76-32L329.76-32L329.76-32Q331.78-30.08 331.78-26.14L331.78-26.14L331.78-26.14Q331.78-22.21 329.18-19.71L329.18-19.71L329.18-19.71Q326.59-17.22 322.18-17.22L322.18-17.22L322.18-17.22Q320.26-17.22 319.49-17.98ZM333.82-6.40L333.82-6.40L333.82-6.40Q333.82-8.13 334.72-12.48L334.72-12.48L338.11-29.76L334.34-29.76L334.59-31.68L334.59-31.68Q342.27-33.98 349.70-39.62L349.70-39.62L352.77-39.62L351.23-32.64L356.22-32.64L355.65-29.76L350.72-29.76L347.46-12.48L347.46-12.48Q346.62-8.51 346.62-7.17L346.62-7.17L346.62-7.17Q346.62-4.10 349.31-3.46L349.31-3.46L349.31-3.46Q348.67-1.28 346.37 0L346.37 0L346.37 0Q344.06 1.28 340.80 1.28L340.80 1.28L340.80 1.28Q337.54 1.28 335.68-0.77L335.68-0.77L335.68-0.77Q333.82-2.82 333.82-6.40ZM376.45-2.69L376.45-2.69L376.45-2.69Q373.38 1.28 365.76 1.28L365.76 1.28L365.76 1.28Q361.79 1.28 358.91-1.12L358.91-1.12L358.91-1.12Q356.03-3.52 356.03-6.98L356.03-6.98L356.03-6.98Q356.03-8.90 356.22-9.86L356.22-9.86L360.51-32.64L373.50-33.92L368.83-9.22L368.83-9.22Q368.58-7.81 368.58-6.98L368.58-6.98L368.58-6.98Q368.58-3.26 370.82-3.26L370.82-3.26L370.82-3.26Q373.31-3.26 375.10-6.66L375.10-6.66L375.10-6.66Q375.68-7.74 375.94-9.15L375.94-9.15L380.48-32.64L393.09-33.92L388.35-8.96L388.35-8.96Q388.16-8 388.16-6.98L388.16-6.98L388.16-6.98Q388.16-5.95 388.74-4.83L388.74-4.83L388.74-4.83Q389.31-3.71 391.17-3.46L391.17-3.46L391.17-3.46Q390.78-1.92 389.44-0.90L389.44-0.90L389.44-0.90Q386.62 1.28 383.58 1.28L383.58 1.28L383.58 1.28Q380.54 1.28 378.75 0.19L378.75 0.19L378.75 0.19Q376.96-0.90 376.45-2.69ZM423.62 1.28L423.62 1.28L423.62 1.28Q415.87 1.28 415.87-4.74L415.87-4.74L415.87-4.74Q415.94-6.40 416.45-9.22L416.45-9.22L417.60-15.10L417.60-15.10Q419.33-23.42 419.33-25.28L419.33-25.28L419.33-25.28Q419.33-28.99 417.15-28.99L417.15-28.99L417.15-28.99Q413.50-28.99 411.58-19.46L411.58-19.46L407.81 0L394.94 1.28L401.60-32.70L412.10-33.92L411.07-27.65L411.07-27.65Q414.08-33.92 423.30-33.92L423.30-33.92L423.30-33.92Q427.78-33.92 429.66-32.03L429.66-32.03L429.66-32.03Q431.55-30.14 431.55-25.92L431.55-25.92L431.55-25.92Q431.55-21.95 429.50-12.67L429.50-12.67L429.50-12.67Q428.54-8.51 428.54-6.94L428.54-6.94L428.54-6.94Q428.54-5.38 429.41-4.48L429.41-4.48L429.41-4.48Q430.27-3.58 431.55-3.46L431.55-3.46L431.55-3.46Q430.91-1.28 428.70 0L428.70 0L428.70 0Q426.50 1.28 423.62 1.28ZM462.59-10.82L462.59-10.82L462.59-10.82Q464.19-9.73 464.19-7.33L464.19-7.33L464.19-7.33Q464.19-4.93 462.98-3.39L462.98-3.39L462.98-3.39Q461.76-1.86 459.78-0.83L459.78-0.83L459.78-0.83Q455.68 1.28 451.26 1.28L451.26 1.28L451.26 1.28Q446.85 1.28 444.26 0.32L444.26 0.32L444.26 0.32Q441.66-0.64 439.94-2.43L439.94-2.43L439.94-2.43Q436.54-5.82 436.54-12.03L436.54-12.03L436.54-12.03Q436.54-21.70 441.79-27.58L441.79-27.58L441.79-27.58Q447.42-33.92 457.22-33.92L457.22-33.92L457.22-33.92Q463.30-33.92 466.30-31.36L466.30-31.36L466.30-31.36Q468.54-29.44 468.54-26.30L468.54-26.30L468.54-26.30Q468.54-15.04 449.09-15.04L449.09-15.04L449.09-15.04Q448.83-13.38 448.83-11.97L448.83-11.97L448.83-11.97Q448.83-9.02 450.14-7.90L450.14-7.90L450.14-7.90Q451.46-6.78 453.89-6.78L453.89-6.78L453.89-6.78Q456.32-6.78 458.91-7.90L458.91-7.90L458.91-7.90Q461.50-9.02 462.59-10.82ZM449.54-17.79L449.54-17.79L449.54-17.79Q454.08-17.79 456.70-20.61L456.70-20.61L456.70-20.61Q459.33-23.30 459.33-27.58L459.33-27.58L459.33-27.58Q459.33-29.06 458.78-29.86L458.78-29.86L458.78-29.86Q458.24-30.66 457.15-30.66L457.15-30.66L457.15-30.66Q456.06-30.66 455.14-30.24L455.14-30.24L455.14-30.24Q454.21-29.82 453.25-28.42L453.25-28.42L453.25-28.42Q450.88-25.22 449.54-17.79Z" fill="url(#editing-rainbow-gradient)"></path></g></g><style>text {
  font-size: 64px;
  font-family: Arial Black;
  dominant-baseline: central;
  text-anchor: middle;
}</style></svg>